<mxfile host="" modified="2021-01-19T23:37:47.624Z" agent="5.0 (Macintosh; Intel Mac OS X 10_16_0) AppleWebKit/537.36 (KHTML, like Gecko) Chrome/81.0.4044.113 Safari/537.36" etag="SGb1bvNKOd0crfUHmn0f" version="13.7.9" type="embed"><diagram id="IiXr-6zl2wVgoeyxL-SL" name="Página-1"><mxGraphModel dx="673" dy="345" grid="1" gridSize="10" guides="1" tooltips="1" connect="1" arrows="1" fold="1" page="1" pageScale="1" pageWidth="827" pageHeight="1169" math="0" shadow="0"><root><mxCell id="0"/><mxCell id="1" parent="0"/><mxCell id="6Y2pGuklJ1V1P5hbUWtW-3" style="edgeStyle=orthogonalEdgeStyle;rounded=0;orthogonalLoop=1;jettySize=auto;html=1;exitX=0.5;exitY=1;exitDx=0;exitDy=0;entryX=0.5;entryY=0;entryDx=0;entryDy=0;" parent="1" source="6Y2pGuklJ1V1P5hbUWtW-1" edge="1"><mxGeometry relative="1" as="geometry"><mxPoint x="465" y="120" as="targetPoint"/></mxGeometry></mxCell><mxCell id="6Y2pGuklJ1V1P5hbUWtW-1" value="" style="ellipse;fillColor=#000000;strokeColor=none;" parent="1" vertex="1"><mxGeometry x="450" y="30" width="30" height="30" as="geometry"/></mxCell><mxCell id="U5DwUW3N4f6TewwI4WO0-10" style="edgeStyle=orthogonalEdgeStyle;rounded=0;orthogonalLoop=1;jettySize=auto;html=1;exitX=0.5;exitY=1;exitDx=0;exitDy=0;entryX=0;entryY=0.25;entryDx=0;entryDy=0;" parent="1" source="6Y2pGuklJ1V1P5hbUWtW-5" target="U5DwUW3N4f6TewwI4WO0-8" edge="1"><mxGeometry relative="1" as="geometry"/></mxCell><mxCell id="6Y2pGuklJ1V1P5hbUWtW-5" value="A aguardar pagamento" style="rounded=1;whiteSpace=wrap;html=1;" parent="1" vertex="1"><mxGeometry x="510" y="400" width="120" height="60" as="geometry"/></mxCell><mxCell id="U5DwUW3N4f6TewwI4WO0-3" style="edgeStyle=orthogonalEdgeStyle;rounded=0;orthogonalLoop=1;jettySize=auto;html=1;exitX=0.5;exitY=1;exitDx=0;exitDy=0;entryX=0.5;entryY=0;entryDx=0;entryDy=0;" parent="1" source="6Y2pGuklJ1V1P5hbUWtW-9" target="6Y2pGuklJ1V1P5hbUWtW-11" edge="1"><mxGeometry relative="1" as="geometry"/></mxCell><mxCell id="6Y2pGuklJ1V1P5hbUWtW-9" value="Paga" style="rounded=1;whiteSpace=wrap;html=1;" parent="1" vertex="1"><mxGeometry x="405" y="585" width="120" height="60" as="geometry"/></mxCell><mxCell id="6Y2pGuklJ1V1P5hbUWtW-11" value="" style="ellipse;html=1;shape=endState;fillColor=#000000;strokeColor=#000000;" parent="1" vertex="1"><mxGeometry x="450" y="700" width="30" height="30" as="geometry"/></mxCell><mxCell id="6Y2pGuklJ1V1P5hbUWtW-12" value="pagamentoefectuado()" style="text;html=1;align=center;verticalAlign=middle;resizable=0;points=[];autosize=1;" parent="1" vertex="1"><mxGeometry x="470" y="660" width="140" height="20" as="geometry"/></mxCell><mxCell id="6Y2pGuklJ1V1P5hbUWtW-13" value="apresentarValorAPagar()" style="text;html=1;align=center;verticalAlign=middle;resizable=0;points=[];autosize=1;" parent="1" vertex="1"><mxGeometry x="470" y="540" width="150" height="20" as="geometry"/></mxCell><mxCell id="4ESlwrJd3ZGKDe2rf0hL-1" value="fechoDaConsulta()" style="text;html=1;align=center;verticalAlign=middle;resizable=0;points=[];autosize=1;" parent="1" vertex="1"><mxGeometry x="460" y="70" width="120" height="20" as="geometry"/></mxCell><mxCell id="4ESlwrJd3ZGKDe2rf0hL-33" style="edgeStyle=orthogonalEdgeStyle;rounded=0;orthogonalLoop=1;jettySize=auto;html=1;exitX=0.5;exitY=1;exitDx=0;exitDy=0;entryX=0.5;entryY=0;entryDx=0;entryDy=0;" parent="1" source="4ESlwrJd3ZGKDe2rf0hL-13" target="4ESlwrJd3ZGKDe2rf0hL-16" edge="1"><mxGeometry relative="1" as="geometry"/></mxCell><mxCell id="4ESlwrJd3ZGKDe2rf0hL-13" value="Não Faturada" style="rounded=1;whiteSpace=wrap;html=1;" parent="1" vertex="1"><mxGeometry x="405" y="120" width="120" height="60" as="geometry"/></mxCell><mxCell id="4ESlwrJd3ZGKDe2rf0hL-21" style="edgeStyle=orthogonalEdgeStyle;rounded=0;orthogonalLoop=1;jettySize=auto;html=1;exitX=0.5;exitY=1;exitDx=0;exitDy=0;" parent="1" source="4ESlwrJd3ZGKDe2rf0hL-16" edge="1"><mxGeometry relative="1" as="geometry"><mxPoint x="465.3333333333335" y="350" as="targetPoint"/></mxGeometry></mxCell><mxCell id="4ESlwrJd3ZGKDe2rf0hL-34" style="edgeStyle=orthogonalEdgeStyle;rounded=0;orthogonalLoop=1;jettySize=auto;html=1;exitX=0;exitY=0.5;exitDx=0;exitDy=0;entryX=0;entryY=0.5;entryDx=0;entryDy=0;" parent="1" source="4ESlwrJd3ZGKDe2rf0hL-16" target="4ESlwrJd3ZGKDe2rf0hL-13" edge="1"><mxGeometry relative="1" as="geometry"/></mxCell><mxCell id="4ESlwrJd3ZGKDe2rf0hL-16" value="" style="rhombus;whiteSpace=wrap;html=1;" parent="1" vertex="1"><mxGeometry x="450" y="240" width="30" height="30" as="geometry"/></mxCell><mxCell id="4ESlwrJd3ZGKDe2rf0hL-19" value="falhaAtribuiçãoNumeroFatura()" style="text;html=1;align=center;verticalAlign=middle;resizable=0;points=[];autosize=1;" parent="1" vertex="1"><mxGeometry x="210" y="200" width="180" height="20" as="geometry"/></mxCell><mxCell id="4ESlwrJd3ZGKDe2rf0hL-22" value="&lt;span style=&quot;color: rgb(0 , 0 , 0) ; font-family: &amp;#34;helvetica&amp;#34; ; font-size: 12px ; font-style: normal ; font-weight: 400 ; letter-spacing: normal ; text-align: center ; text-indent: 0px ; text-transform: none ; word-spacing: 0px ; background-color: rgb(248 , 249 , 250) ; display: inline ; float: none&quot;&gt;atribuiçãoNumeroFatura()&lt;/span&gt;" style="text;whiteSpace=wrap;html=1;" parent="1" vertex="1"><mxGeometry x="470" y="290" width="190" height="30" as="geometry"/></mxCell><mxCell id="4ESlwrJd3ZGKDe2rf0hL-32" value="pedidoDeFaturação()" style="text;html=1;align=center;verticalAlign=middle;resizable=0;points=[];autosize=1;" parent="1" vertex="1"><mxGeometry x="470" y="200" width="130" height="20" as="geometry"/></mxCell><mxCell id="U5DwUW3N4f6TewwI4WO0-9" style="edgeStyle=orthogonalEdgeStyle;rounded=0;orthogonalLoop=1;jettySize=auto;html=1;exitX=0.5;exitY=1;exitDx=0;exitDy=0;entryX=0;entryY=0.75;entryDx=0;entryDy=0;" parent="1" source="4ESlwrJd3ZGKDe2rf0hL-35" target="U5DwUW3N4f6TewwI4WO0-8" edge="1"><mxGeometry relative="1" as="geometry"/></mxCell><mxCell id="4ESlwrJd3ZGKDe2rf0hL-35" value="Faturada" style="rounded=1;whiteSpace=wrap;html=1;" parent="1" vertex="1"><mxGeometry x="300" y="400" width="120" height="60" as="geometry"/></mxCell><mxCell id="U5DwUW3N4f6TewwI4WO0-6" style="edgeStyle=orthogonalEdgeStyle;rounded=0;orthogonalLoop=1;jettySize=auto;html=1;exitX=1;exitY=0.75;exitDx=0;exitDy=0;" parent="1" source="U5DwUW3N4f6TewwI4WO0-5" target="4ESlwrJd3ZGKDe2rf0hL-35" edge="1"><mxGeometry relative="1" as="geometry"/></mxCell><mxCell id="U5DwUW3N4f6TewwI4WO0-7" style="edgeStyle=orthogonalEdgeStyle;rounded=0;orthogonalLoop=1;jettySize=auto;html=1;exitX=0;exitY=0.25;exitDx=0;exitDy=0;entryX=0.5;entryY=0;entryDx=0;entryDy=0;" parent="1" source="U5DwUW3N4f6TewwI4WO0-5" target="6Y2pGuklJ1V1P5hbUWtW-5" edge="1"><mxGeometry relative="1" as="geometry"><Array as="points"><mxPoint x="502" y="370"/><mxPoint x="570" y="370"/></Array></mxGeometry></mxCell><mxCell id="U5DwUW3N4f6TewwI4WO0-5" value="" style="rounded=0;whiteSpace=wrap;html=1;fillColor=#000000;direction=south;" parent="1" vertex="1"><mxGeometry x="391.25" y="350" width="147.5" height="5" as="geometry"/></mxCell><mxCell id="U5DwUW3N4f6TewwI4WO0-11" style="edgeStyle=orthogonalEdgeStyle;rounded=0;orthogonalLoop=1;jettySize=auto;html=1;exitX=1;exitY=0.5;exitDx=0;exitDy=0;entryX=0.5;entryY=0;entryDx=0;entryDy=0;" parent="1" source="U5DwUW3N4f6TewwI4WO0-8" target="6Y2pGuklJ1V1P5hbUWtW-9" edge="1"><mxGeometry relative="1" as="geometry"/></mxCell><mxCell id="U5DwUW3N4f6TewwI4WO0-8" value="" style="rounded=0;whiteSpace=wrap;html=1;fillColor=#000000;direction=south;" parent="1" vertex="1"><mxGeometry x="391.25" y="510" width="147.5" height="5" as="geometry"/></mxCell></root></mxGraphModel></diagram></mxfile>